<mxfile host="app.diagrams.net" modified="2023-11-03T10:15:58.355Z" agent="Mozilla/5.0 (Macintosh; Intel Mac OS X 10_15_7) AppleWebKit/537.36 (KHTML, like Gecko) Chrome/118.0.0.0 Safari/537.36" etag="1MpaR74ckRQ99HcexmQ7" version="22.0.8" type="github">
  <diagram name="第 1 页" id="vVpCZfDv8el2wT4L0e3R">
    <mxGraphModel dx="844" dy="-250" grid="1" gridSize="10" guides="1" tooltips="1" connect="1" arrows="1" fold="1" page="1" pageScale="1" pageWidth="827" pageHeight="1169" math="0" shadow="0">
      <root>
        <mxCell id="0" />
        <mxCell id="1" parent="0" />
        <mxCell id="cYiCLH4inrJGbYnhFq96-532" style="edgeStyle=orthogonalEdgeStyle;rounded=0;orthogonalLoop=1;jettySize=auto;html=1;exitX=0.5;exitY=1;exitDx=0;exitDy=0;" parent="1" source="cYiCLH4inrJGbYnhFq96-558" target="cYiCLH4inrJGbYnhFq96-534" edge="1">
          <mxGeometry relative="1" as="geometry">
            <mxPoint x="1183" y="1448" as="sourcePoint" />
          </mxGeometry>
        </mxCell>
        <mxCell id="cYiCLH4inrJGbYnhFq96-533" value="" style="edgeStyle=orthogonalEdgeStyle;rounded=0;orthogonalLoop=1;jettySize=auto;html=1;entryX=0.5;entryY=0;entryDx=0;entryDy=0;" parent="1" source="cYiCLH4inrJGbYnhFq96-534" target="cYiCLH4inrJGbYnhFq96-541" edge="1">
          <mxGeometry relative="1" as="geometry">
            <mxPoint x="1182.9999999999995" y="1578" as="targetPoint" />
          </mxGeometry>
        </mxCell>
        <mxCell id="cYiCLH4inrJGbYnhFq96-534" value="&lt;font style=&quot;font-size: 14px;&quot;&gt;获取新老房间外轮廓信息&lt;/font&gt;" style="rounded=1;whiteSpace=wrap;html=1;" parent="1" vertex="1">
          <mxGeometry x="1123" y="1478" width="120" height="60" as="geometry" />
        </mxCell>
        <mxCell id="tLEIXcZHJlOMfoQv3ZU3-1" style="edgeStyle=orthogonalEdgeStyle;rounded=0;orthogonalLoop=1;jettySize=auto;html=1;exitX=1;exitY=0.5;exitDx=0;exitDy=0;entryX=0.5;entryY=0;entryDx=0;entryDy=0;" edge="1" parent="1" source="cYiCLH4inrJGbYnhFq96-541" target="cYiCLH4inrJGbYnhFq96-543">
          <mxGeometry relative="1" as="geometry" />
        </mxCell>
        <mxCell id="tLEIXcZHJlOMfoQv3ZU3-7" value="是" style="edgeLabel;html=1;align=center;verticalAlign=middle;resizable=0;points=[];" vertex="1" connectable="0" parent="tLEIXcZHJlOMfoQv3ZU3-1">
          <mxGeometry x="-0.5244" relative="1" as="geometry">
            <mxPoint x="-1" as="offset" />
          </mxGeometry>
        </mxCell>
        <mxCell id="tLEIXcZHJlOMfoQv3ZU3-4" style="edgeStyle=orthogonalEdgeStyle;rounded=0;orthogonalLoop=1;jettySize=auto;html=1;exitX=0;exitY=0.5;exitDx=0;exitDy=0;" edge="1" parent="1" source="cYiCLH4inrJGbYnhFq96-541" target="cYiCLH4inrJGbYnhFq96-548">
          <mxGeometry relative="1" as="geometry">
            <Array as="points">
              <mxPoint x="1070" y="1628" />
              <mxPoint x="1070" y="1760" />
              <mxPoint x="1182" y="1760" />
            </Array>
          </mxGeometry>
        </mxCell>
        <mxCell id="tLEIXcZHJlOMfoQv3ZU3-8" value="否" style="edgeLabel;html=1;align=center;verticalAlign=middle;resizable=0;points=[];" vertex="1" connectable="0" parent="tLEIXcZHJlOMfoQv3ZU3-4">
          <mxGeometry x="-0.827" y="3" relative="1" as="geometry">
            <mxPoint as="offset" />
          </mxGeometry>
        </mxCell>
        <mxCell id="cYiCLH4inrJGbYnhFq96-541" value="&lt;font style=&quot;font-size: 14px;&quot;&gt;新房间轮廓&amp;gt;1&lt;/font&gt;" style="rhombus;whiteSpace=wrap;html=1;" parent="1" vertex="1">
          <mxGeometry x="1116.5" y="1588" width="133" height="80" as="geometry" />
        </mxCell>
        <mxCell id="tLEIXcZHJlOMfoQv3ZU3-5" style="edgeStyle=orthogonalEdgeStyle;rounded=0;orthogonalLoop=1;jettySize=auto;html=1;exitX=0.5;exitY=1;exitDx=0;exitDy=0;entryX=0.5;entryY=0;entryDx=0;entryDy=0;" edge="1" parent="1" source="cYiCLH4inrJGbYnhFq96-543" target="cYiCLH4inrJGbYnhFq96-548">
          <mxGeometry relative="1" as="geometry">
            <Array as="points">
              <mxPoint x="1316" y="1760" />
              <mxPoint x="1182" y="1760" />
            </Array>
          </mxGeometry>
        </mxCell>
        <mxCell id="cYiCLH4inrJGbYnhFq96-543" value="&lt;font style=&quot;font-size: 14px;&quot;&gt;保留面积最大轮廓&lt;/font&gt;" style="rounded=1;whiteSpace=wrap;html=1;" parent="1" vertex="1">
          <mxGeometry x="1256" y="1668" width="120" height="60" as="geometry" />
        </mxCell>
        <mxCell id="cYiCLH4inrJGbYnhFq96-568" style="edgeStyle=orthogonalEdgeStyle;rounded=0;orthogonalLoop=1;jettySize=auto;html=1;exitX=0;exitY=0.5;exitDx=0;exitDy=0;" parent="1" source="cYiCLH4inrJGbYnhFq96-548" target="cYiCLH4inrJGbYnhFq96-564" edge="1">
          <mxGeometry relative="1" as="geometry" />
        </mxCell>
        <mxCell id="tLEIXcZHJlOMfoQv3ZU3-6" style="edgeStyle=orthogonalEdgeStyle;rounded=0;orthogonalLoop=1;jettySize=auto;html=1;exitX=1;exitY=0.5;exitDx=0;exitDy=0;entryX=0.5;entryY=0;entryDx=0;entryDy=0;" edge="1" parent="1" source="cYiCLH4inrJGbYnhFq96-548" target="cYiCLH4inrJGbYnhFq96-570">
          <mxGeometry relative="1" as="geometry">
            <Array as="points">
              <mxPoint x="1320" y="1828" />
              <mxPoint x="1320" y="1980" />
              <mxPoint x="1182" y="1980" />
            </Array>
          </mxGeometry>
        </mxCell>
        <mxCell id="cYiCLH4inrJGbYnhFq96-548" value="&lt;span style=&quot;font-size: 14px;&quot;&gt;老房间轮廓大于&amp;gt;1&lt;/span&gt;" style="rhombus;whiteSpace=wrap;html=1;" parent="1" vertex="1">
          <mxGeometry x="1115.78" y="1788" width="133" height="80" as="geometry" />
        </mxCell>
        <mxCell id="cYiCLH4inrJGbYnhFq96-549" style="edgeStyle=orthogonalEdgeStyle;rounded=0;orthogonalLoop=1;jettySize=auto;html=1;exitX=0.5;exitY=1;exitDx=0;exitDy=0;entryX=0.5;entryY=0;entryDx=0;entryDy=0;" parent="1" source="cYiCLH4inrJGbYnhFq96-550" target="cYiCLH4inrJGbYnhFq96-553" edge="1">
          <mxGeometry relative="1" as="geometry" />
        </mxCell>
        <mxCell id="cYiCLH4inrJGbYnhFq96-550" value="&lt;font style=&quot;font-size: 14px;&quot;&gt;保存并上报数据&lt;br&gt;&lt;/font&gt;" style="rounded=1;whiteSpace=wrap;html=1;" parent="1" vertex="1">
          <mxGeometry x="1122.28" y="2320" width="120" height="60" as="geometry" />
        </mxCell>
        <mxCell id="cYiCLH4inrJGbYnhFq96-553" value="&lt;font style=&quot;font-size: 15px;&quot;&gt;结束&lt;/font&gt;" style="ellipse;whiteSpace=wrap;html=1;" parent="1" vertex="1">
          <mxGeometry x="1130" y="2410" width="106" height="60" as="geometry" />
        </mxCell>
        <mxCell id="cYiCLH4inrJGbYnhFq96-554" style="edgeStyle=orthogonalEdgeStyle;rounded=0;orthogonalLoop=1;jettySize=auto;html=1;exitX=0.5;exitY=1;exitDx=0;exitDy=0;" parent="1" source="cYiCLH4inrJGbYnhFq96-555" target="cYiCLH4inrJGbYnhFq96-557" edge="1">
          <mxGeometry relative="1" as="geometry" />
        </mxCell>
        <mxCell id="cYiCLH4inrJGbYnhFq96-555" value="&lt;font style=&quot;font-size: 15px;&quot;&gt;开始&lt;/font&gt;" style="ellipse;whiteSpace=wrap;html=1;" parent="1" vertex="1">
          <mxGeometry x="1130" y="1200" width="106" height="60" as="geometry" />
        </mxCell>
        <mxCell id="cYiCLH4inrJGbYnhFq96-556" style="edgeStyle=orthogonalEdgeStyle;rounded=0;orthogonalLoop=1;jettySize=auto;html=1;exitX=0.5;exitY=1;exitDx=0;exitDy=0;" parent="1" source="cYiCLH4inrJGbYnhFq96-557" target="cYiCLH4inrJGbYnhFq96-558" edge="1">
          <mxGeometry relative="1" as="geometry" />
        </mxCell>
        <mxCell id="cYiCLH4inrJGbYnhFq96-557" value="分割线有效" style="rounded=1;whiteSpace=wrap;html=1;" parent="1" vertex="1">
          <mxGeometry x="1123" y="1290" width="120" height="60" as="geometry" />
        </mxCell>
        <mxCell id="cYiCLH4inrJGbYnhFq96-558" value="&lt;font style=&quot;font-size: 14px;&quot;&gt;根据直线方程，将左侧改成新房间&lt;/font&gt;" style="rounded=1;whiteSpace=wrap;html=1;" parent="1" vertex="1">
          <mxGeometry x="1123" y="1378" width="120" height="60" as="geometry" />
        </mxCell>
        <mxCell id="cYiCLH4inrJGbYnhFq96-574" style="edgeStyle=orthogonalEdgeStyle;rounded=0;orthogonalLoop=1;jettySize=auto;html=1;exitX=0.5;exitY=1;exitDx=0;exitDy=0;entryX=0.5;entryY=0;entryDx=0;entryDy=0;" parent="1" source="cYiCLH4inrJGbYnhFq96-564" target="cYiCLH4inrJGbYnhFq96-570" edge="1">
          <mxGeometry relative="1" as="geometry">
            <Array as="points">
              <mxPoint x="1070" y="1980" />
              <mxPoint x="1182" y="1980" />
            </Array>
          </mxGeometry>
        </mxCell>
        <mxCell id="cYiCLH4inrJGbYnhFq96-564" value="&lt;span style=&quot;font-size: 14px;&quot;&gt;剔除面积最大轮廓&lt;/span&gt;" style="rounded=1;whiteSpace=wrap;html=1;" parent="1" vertex="1">
          <mxGeometry x="1010" y="1887" width="120" height="60" as="geometry" />
        </mxCell>
        <mxCell id="tLEIXcZHJlOMfoQv3ZU3-12" style="edgeStyle=orthogonalEdgeStyle;rounded=0;orthogonalLoop=1;jettySize=auto;html=1;exitX=0.5;exitY=1;exitDx=0;exitDy=0;entryX=0.5;entryY=0;entryDx=0;entryDy=0;" edge="1" parent="1" source="cYiCLH4inrJGbYnhFq96-570" target="tLEIXcZHJlOMfoQv3ZU3-11">
          <mxGeometry relative="1" as="geometry" />
        </mxCell>
        <mxCell id="cYiCLH4inrJGbYnhFq96-570" value="&lt;font style=&quot;font-size: 14px;&quot;&gt;合并新房间最大轮廓和老房间非最大面积轮廓 =&amp;gt; &lt;font color=&quot;#ff0000&quot;&gt;A&lt;/font&gt;&lt;br&gt;&lt;/font&gt;" style="rounded=1;whiteSpace=wrap;html=1;" parent="1" vertex="1">
          <mxGeometry x="1090.42" y="2007" width="183.72" height="51" as="geometry" />
        </mxCell>
        <mxCell id="cYiCLH4inrJGbYnhFq96-577" style="edgeStyle=orthogonalEdgeStyle;rounded=0;orthogonalLoop=1;jettySize=auto;html=1;exitX=0.5;exitY=1;exitDx=0;exitDy=0;entryX=0.5;entryY=0;entryDx=0;entryDy=0;" parent="1" source="cYiCLH4inrJGbYnhFq96-575" target="cYiCLH4inrJGbYnhFq96-550" edge="1">
          <mxGeometry relative="1" as="geometry">
            <Array as="points">
              <mxPoint x="1087" y="2300" />
              <mxPoint x="1182" y="2300" />
            </Array>
          </mxGeometry>
        </mxCell>
        <mxCell id="cYiCLH4inrJGbYnhFq96-575" value="&lt;span style=&quot;font-size: 14px;&quot;&gt;&lt;font color=&quot;#ff0000&quot;&gt;再次遍历原始房间数据，在 A 轮廓内的老房间数字修改为新房间数字&lt;/font&gt;&lt;br&gt;&lt;/span&gt;" style="rounded=1;whiteSpace=wrap;html=1;" parent="1" vertex="1">
          <mxGeometry x="969.9999999999999" y="2210" width="233.72" height="60" as="geometry" />
        </mxCell>
        <mxCell id="tLEIXcZHJlOMfoQv3ZU3-13" style="edgeStyle=orthogonalEdgeStyle;rounded=0;orthogonalLoop=1;jettySize=auto;html=1;exitX=0;exitY=0.5;exitDx=0;exitDy=0;entryX=0.5;entryY=0;entryDx=0;entryDy=0;" edge="1" parent="1" source="tLEIXcZHJlOMfoQv3ZU3-11" target="cYiCLH4inrJGbYnhFq96-575">
          <mxGeometry relative="1" as="geometry" />
        </mxCell>
        <mxCell id="tLEIXcZHJlOMfoQv3ZU3-16" value="否" style="edgeLabel;html=1;align=center;verticalAlign=middle;resizable=0;points=[];" vertex="1" connectable="0" parent="tLEIXcZHJlOMfoQv3ZU3-13">
          <mxGeometry x="-0.6998" y="-4" relative="1" as="geometry">
            <mxPoint as="offset" />
          </mxGeometry>
        </mxCell>
        <mxCell id="tLEIXcZHJlOMfoQv3ZU3-14" style="edgeStyle=orthogonalEdgeStyle;rounded=0;orthogonalLoop=1;jettySize=auto;html=1;exitX=1;exitY=0.5;exitDx=0;exitDy=0;entryX=0.5;entryY=0;entryDx=0;entryDy=0;" edge="1" parent="1" source="tLEIXcZHJlOMfoQv3ZU3-11" target="cYiCLH4inrJGbYnhFq96-550">
          <mxGeometry relative="1" as="geometry">
            <Array as="points">
              <mxPoint x="1320" y="2150" />
              <mxPoint x="1320" y="2300" />
              <mxPoint x="1182" y="2300" />
            </Array>
          </mxGeometry>
        </mxCell>
        <mxCell id="tLEIXcZHJlOMfoQv3ZU3-15" value="是" style="edgeLabel;html=1;align=center;verticalAlign=middle;resizable=0;points=[];" vertex="1" connectable="0" parent="tLEIXcZHJlOMfoQv3ZU3-14">
          <mxGeometry x="-0.8412" y="-1" relative="1" as="geometry">
            <mxPoint x="-1" as="offset" />
          </mxGeometry>
        </mxCell>
        <mxCell id="tLEIXcZHJlOMfoQv3ZU3-11" value="&lt;span style=&quot;font-size: 14px;&quot;&gt;A 为空&lt;/span&gt;" style="rhombus;whiteSpace=wrap;html=1;" vertex="1" parent="1">
          <mxGeometry x="1116.5" y="2110" width="133" height="80" as="geometry" />
        </mxCell>
      </root>
    </mxGraphModel>
  </diagram>
</mxfile>
